# xmcd CD database file
#
# Track frame offsets:
#	150
#	15632
#	32700
#	53386
#	70691
#	91067
#	109446
#	127687
#	154966
#	175048
#	191472
#	210593
#	242925
#	260417
#	290254
#	312128
#	342277
#
# Disc length: 4753 seconds
#
# Revision: 1
# Processed by: cddbd v1.5.1PL2 Copyright (c) Steve Scherf et al.
# Submitted via: CDex 1.51
#
DISCID=df128f11
DTITLE=Dido - The best of Dido
DYEAR=2002
DGENRE=Pop
TTITLE0=One step too far (ft. Faithless)
TTITLE1=Hunter (radio edit)
TTITLE2=Honestly OK
TTITLE3=I'm no angel
TTITLE4=Do not think of me
TTITLE5=All you want
TTITLE6=Christmas day
TTITLE7=Hunter (MJ Cole mix)
TTITLE8=My lover's gone
TTITLE9=Thenk you
TTITLE10=Here with me
TTITLE11=One step too far (ft. Faithless)
TTITLE12=Isobel
TTITLE13=Take my hand
TTITLE14=Slide
TTITLE15=Stan
TTITLE16=My life (ft. Eminem)
EXTD=YEAR: 2002
EXTT0=
EXTT1=
EXTT2=
EXTT3=
EXTT4=
EXTT5=
EXTT6=
EXTT7=
EXTT8=
EXTT9=
EXTT10=
EXTT11=
EXTT12=
EXTT13=
EXTT14=
EXTT15=
EXTT16=
PLAYORDER=
